<svg xmlns="http://www.w3.org/2000/svg" xmlns:xlink="http://www.w3.org/1999/xlink" width="242" zoomAndPan="magnify" viewBox="0 0 181.5 36.000001" height="48" preserveAspectRatio="xMidYMid meet" version="1.0"><defs><g/><clipPath id="d785a496a2"><path d="M 27.363281 0.410156 L 48.523438 0.410156 L 48.523438 34.707031 L 27.363281 34.707031 Z M 27.363281 0.410156 " clip-rule="nonzero"/></clipPath></defs><g clip-path="url(#d785a496a2)"><path fill="#fff7ea" d="M 35.539062 0.402344 L 48.636719 0.402344 L 38.035156 15.804688 L 48.636719 16.203125 L 33.039062 34.601562 L 35.335938 20.40625 L 27.4375 21.003906 L 35.539062 0.402344 " fill-opacity="1" fill-rule="nonzero"/></g><g fill="#fff7ea" fill-opacity="1"><g transform="translate(51.671593, 24.213234)"><g><path d="M 9 -20.78125 C 10.101562 -20.78125 11.179688 -20.617188 12.234375 -20.296875 C 13.296875 -19.972656 14.082031 -19.65625 14.59375 -19.34375 L 15.328125 -18.84375 L 13.453125 -15.140625 C 13.304688 -15.234375 13.097656 -15.359375 12.828125 -15.515625 C 12.566406 -15.671875 12.070312 -15.878906 11.34375 -16.140625 C 10.625 -16.410156 9.953125 -16.546875 9.328125 -16.546875 C 8.546875 -16.546875 7.945312 -16.378906 7.53125 -16.046875 C 7.113281 -15.722656 6.90625 -15.28125 6.90625 -14.71875 C 6.90625 -14.4375 7.003906 -14.175781 7.203125 -13.9375 C 7.398438 -13.695312 7.734375 -13.441406 8.203125 -13.171875 C 8.679688 -12.898438 9.101562 -12.679688 9.46875 -12.515625 C 9.832031 -12.347656 10.394531 -12.101562 11.15625 -11.78125 C 12.476562 -11.21875 13.601562 -10.453125 14.53125 -9.484375 C 15.457031 -8.515625 15.921875 -7.421875 15.921875 -6.203125 C 15.921875 -5.035156 15.710938 -4.015625 15.296875 -3.140625 C 14.878906 -2.265625 14.300781 -1.578125 13.5625 -1.078125 C 12.832031 -0.585938 12.019531 -0.222656 11.125 0.015625 C 10.238281 0.253906 9.273438 0.375 8.234375 0.375 C 7.347656 0.375 6.472656 0.28125 5.609375 0.09375 C 4.753906 -0.0820312 4.035156 -0.304688 3.453125 -0.578125 C 2.878906 -0.847656 2.363281 -1.113281 1.90625 -1.375 C 1.445312 -1.644531 1.109375 -1.867188 0.890625 -2.046875 L 0.5625 -2.328125 L 2.890625 -6.234375 C 3.085938 -6.066406 3.359375 -5.851562 3.703125 -5.59375 C 4.054688 -5.34375 4.671875 -5.003906 5.546875 -4.578125 C 6.429688 -4.148438 7.210938 -3.9375 7.890625 -3.9375 C 9.847656 -3.9375 10.828125 -4.601562 10.828125 -5.9375 C 10.828125 -6.21875 10.753906 -6.476562 10.609375 -6.71875 C 10.472656 -6.957031 10.226562 -7.195312 9.875 -7.4375 C 9.519531 -7.675781 9.207031 -7.863281 8.9375 -8 C 8.664062 -8.144531 8.21875 -8.359375 7.59375 -8.640625 C 6.976562 -8.929688 6.523438 -9.148438 6.234375 -9.296875 C 4.992188 -9.910156 4.035156 -10.671875 3.359375 -11.578125 C 2.679688 -12.492188 2.34375 -13.484375 2.34375 -14.546875 C 2.34375 -16.378906 3.019531 -17.875 4.375 -19.03125 C 5.726562 -20.195312 7.269531 -20.78125 9 -20.78125 Z M 9 -20.78125 "/></g></g></g><g fill="#fff7ea" fill-opacity="1"><g transform="translate(65.960355, 24.213234)"><g><path d="M 14.546875 -11.109375 C 15.734375 -9.816406 16.328125 -8.226562 16.328125 -6.34375 C 16.328125 -4.46875 15.734375 -2.878906 14.546875 -1.578125 C 13.359375 -0.273438 11.847656 0.375 10.015625 0.375 C 8.335938 0.375 6.953125 -0.15625 5.859375 -1.21875 L 5.859375 6.4375 L 1.484375 6.4375 L 1.484375 -12.6875 L 5.8125 -12.6875 L 5.8125 -11.25 L 5.859375 -11.25 C 6.953125 -12.457031 8.335938 -13.0625 10.015625 -13.0625 C 11.847656 -13.0625 13.359375 -12.410156 14.546875 -11.109375 Z M 10.8125 -4.203125 C 11.382812 -4.765625 11.671875 -5.484375 11.671875 -6.359375 C 11.671875 -7.234375 11.398438 -7.945312 10.859375 -8.5 C 10.316406 -9.050781 9.597656 -9.328125 8.703125 -9.328125 C 7.847656 -9.328125 7.144531 -9.046875 6.59375 -8.484375 C 6.039062 -7.921875 5.765625 -7.210938 5.765625 -6.359375 C 5.765625 -5.484375 6.046875 -4.765625 6.609375 -4.203125 C 7.179688 -3.640625 7.878906 -3.359375 8.703125 -3.359375 C 9.546875 -3.359375 10.25 -3.640625 10.8125 -4.203125 Z M 10.8125 -4.203125 "/></g></g></g><g fill="#fff7ea" fill-opacity="1"><g transform="translate(80.521059, 24.213234)"><g><path d="M 14.328125 -5.734375 L 5.125 -5.734375 C 5.125 -4.847656 5.410156 -4.1875 5.984375 -3.75 C 6.554688 -3.320312 7.179688 -3.109375 7.859375 -3.109375 C 8.566406 -3.109375 9.128906 -3.203125 9.546875 -3.390625 C 9.960938 -3.585938 10.429688 -3.96875 10.953125 -4.53125 L 14.125 -2.9375 C 12.800781 -0.726562 10.609375 0.375 7.546875 0.375 C 5.628906 0.375 3.984375 -0.28125 2.609375 -1.59375 C 1.242188 -2.90625 0.5625 -4.484375 0.5625 -6.328125 C 0.5625 -8.179688 1.242188 -9.765625 2.609375 -11.078125 C 3.984375 -12.398438 5.628906 -13.0625 7.546875 -13.0625 C 9.554688 -13.0625 11.191406 -12.476562 12.453125 -11.3125 C 13.710938 -10.15625 14.34375 -8.492188 14.34375 -6.328125 C 14.34375 -6.035156 14.335938 -5.835938 14.328125 -5.734375 Z M 5.25 -8.15625 L 10.0625 -8.15625 C 9.96875 -8.820312 9.707031 -9.332031 9.28125 -9.6875 C 8.863281 -10.039062 8.328125 -10.21875 7.671875 -10.21875 C 6.941406 -10.21875 6.363281 -10.023438 5.9375 -9.640625 C 5.507812 -9.265625 5.28125 -8.769531 5.25 -8.15625 Z M 5.25 -8.15625 "/></g></g></g><g fill="#fff7ea" fill-opacity="1"><g transform="translate(93.103984, 24.213234)"><g><path d="M 14.328125 -5.734375 L 5.125 -5.734375 C 5.125 -4.847656 5.410156 -4.1875 5.984375 -3.75 C 6.554688 -3.320312 7.179688 -3.109375 7.859375 -3.109375 C 8.566406 -3.109375 9.128906 -3.203125 9.546875 -3.390625 C 9.960938 -3.585938 10.429688 -3.96875 10.953125 -4.53125 L 14.125 -2.9375 C 12.800781 -0.726562 10.609375 0.375 7.546875 0.375 C 5.628906 0.375 3.984375 -0.28125 2.609375 -1.59375 C 1.242188 -2.90625 0.5625 -4.484375 0.5625 -6.328125 C 0.5625 -8.179688 1.242188 -9.765625 2.609375 -11.078125 C 3.984375 -12.398438 5.628906 -13.0625 7.546875 -13.0625 C 9.554688 -13.0625 11.191406 -12.476562 12.453125 -11.3125 C 13.710938 -10.15625 14.34375 -8.492188 14.34375 -6.328125 C 14.34375 -6.035156 14.335938 -5.835938 14.328125 -5.734375 Z M 5.25 -8.15625 L 10.0625 -8.15625 C 9.96875 -8.820312 9.707031 -9.332031 9.28125 -9.6875 C 8.863281 -10.039062 8.328125 -10.21875 7.671875 -10.21875 C 6.941406 -10.21875 6.363281 -10.023438 5.9375 -9.640625 C 5.507812 -9.265625 5.28125 -8.769531 5.25 -8.15625 Z M 5.25 -8.15625 "/></g></g></g><g fill="#fff7ea" fill-opacity="1"><g transform="translate(105.68691, 24.213234)"><g><path d="M 2.34375 -1.5625 C 1.15625 -2.863281 0.5625 -4.453125 0.5625 -6.328125 C 0.5625 -8.210938 1.15625 -9.804688 2.34375 -11.109375 C 3.53125 -12.410156 5.039062 -13.0625 6.875 -13.0625 C 8.5625 -13.0625 9.945312 -12.535156 11.03125 -11.484375 L 11.03125 -21.265625 L 15.40625 -21.265625 L 15.40625 0 L 11.078125 0 L 11.078125 -1.4375 L 11.03125 -1.4375 C 9.945312 -0.226562 8.5625 0.375 6.875 0.375 C 5.039062 0.375 3.53125 -0.269531 2.34375 -1.5625 Z M 6.0625 -8.484375 C 5.5 -7.921875 5.21875 -7.203125 5.21875 -6.328125 C 5.21875 -5.453125 5.488281 -4.738281 6.03125 -4.1875 C 6.570312 -3.632812 7.289062 -3.359375 8.1875 -3.359375 C 9.039062 -3.359375 9.742188 -3.640625 10.296875 -4.203125 C 10.847656 -4.765625 11.125 -5.472656 11.125 -6.328125 C 11.125 -7.203125 10.835938 -7.921875 10.265625 -8.484375 C 9.703125 -9.046875 9.007812 -9.328125 8.1875 -9.328125 C 7.34375 -9.328125 6.632812 -9.046875 6.0625 -8.484375 Z M 6.0625 -8.484375 "/></g></g></g><g fill="#fff7ea" fill-opacity="1"><g transform="translate(120.247611, 24.213234)"><g><path d="M 1.90625 -19.765625 C 2.414062 -20.273438 3.023438 -20.53125 3.734375 -20.53125 C 4.441406 -20.53125 5.050781 -20.273438 5.5625 -19.765625 C 6.070312 -19.253906 6.328125 -18.644531 6.328125 -17.9375 C 6.328125 -17.226562 6.070312 -16.613281 5.5625 -16.09375 C 5.050781 -15.582031 4.441406 -15.328125 3.734375 -15.328125 C 3.023438 -15.328125 2.414062 -15.582031 1.90625 -16.09375 C 1.394531 -16.613281 1.140625 -17.226562 1.140625 -17.9375 C 1.140625 -18.644531 1.394531 -19.253906 1.90625 -19.765625 Z M 1.484375 -12.6875 L 1.484375 0 L 5.859375 0 L 5.859375 -12.6875 Z M 1.484375 -12.6875 "/></g></g></g><g fill="#fff7ea" fill-opacity="1"><g transform="translate(125.389152, 24.213234)"><g><path d="M 2.21875 -12.6875 L 2.21875 -15.390625 C 2.238281 -17.285156 2.6875 -18.800781 3.5625 -19.9375 C 4.4375 -21.070312 5.648438 -21.640625 7.203125 -21.640625 C 7.859375 -21.640625 8.488281 -21.546875 9.09375 -21.359375 C 9.695312 -21.171875 10.128906 -20.976562 10.390625 -20.78125 L 10.8125 -20.5 L 9.28125 -17.40625 C 8.882812 -17.644531 8.445312 -17.765625 7.96875 -17.765625 C 7.414062 -17.765625 7.050781 -17.578125 6.875 -17.203125 C 6.695312 -16.828125 6.609375 -16.179688 6.609375 -15.265625 L 6.609375 -12.6875 L 9.515625 -12.6875 L 9.515625 -9.34375 L 6.609375 -9.34375 L 6.609375 0 L 2.21875 0 L 2.21875 -9.34375 L 0.390625 -9.34375 L 0.390625 -12.6875 Z M 2.21875 -12.6875 "/></g></g></g><g fill="#fff7ea" fill-opacity="1"><g transform="translate(132.335416, 24.213234)"><g><path d="M 11.109375 -12.6875 L 16.15625 -12.6875 L 6.1875 6.4375 L 1.140625 6.4375 L 5.515625 -1.984375 L -0.5 -12.6875 L 4.546875 -12.6875 L 8.09375 -6.1875 Z M 11.109375 -12.6875 "/></g></g></g><g fill="#fff7ea" fill-opacity="1"><g transform="translate(145.660012, 24.213234)"><g><path d="M 4.296875 -5.296875 C 5.085938 -5.296875 5.757812 -5.019531 6.3125 -4.46875 C 6.863281 -3.914062 7.140625 -3.242188 7.140625 -2.453125 C 7.140625 -1.671875 6.863281 -1.003906 6.3125 -0.453125 C 5.757812 0.0976562 5.085938 0.375 4.296875 0.375 C 3.523438 0.375 2.863281 0.0976562 2.3125 -0.453125 C 1.757812 -1.003906 1.484375 -1.671875 1.484375 -2.453125 C 1.484375 -3.242188 1.757812 -3.914062 2.3125 -4.46875 C 2.863281 -5.019531 3.523438 -5.296875 4.296875 -5.296875 Z M 4.296875 -5.296875 "/></g></g></g></svg>